<svg width="64" height="32" viewBox="0 0 64 32" fill="none" xmlns="http://www.w3.org/2000/svg">
<path fill-rule="evenodd" clip-rule="evenodd" d="M20.5766 9.64917L27.4228 7.52075C27.7541 7.41773 28.088 7.46527 28.371 7.65575L31.0188 9.43774C31.2819 9.61487 31.5858 9.66777 31.9 9.59129L44.5158 6.51986C44.8415 6.44057 45.1579 6.50062 45.4241 6.69229C45.6904 6.88397 45.8323 7.15378 45.8316 7.46698L45.7943 24.0749L21.8458 31.1225C21.5216 31.2179 21.1986 31.1708 20.9212 30.9876C20.6439 30.8044 20.4897 30.5362 20.4797 30.2198L19.8599 10.6044C19.846 10.167 20.1305 9.78786 20.5766 9.64917Z" fill="url(#paint0_linear_651_5555)"/>
<path fill-rule="evenodd" clip-rule="evenodd" d="M44.7423 7.32217C44.7423 7.32217 44.7423 7.32217 44.7423 7.32217L32.1265 10.3936C31.5547 10.5328 30.9763 10.4322 30.4971 10.1097C30.4971 10.1097 30.4971 10.1097 30.4971 10.1097L27.8494 8.32768C27.8161 8.30529 27.7935 8.29975 27.781 8.29797C27.7685 8.29619 27.7452 8.29519 27.7062 8.3073L20.86 10.4357C20.8172 10.4491 20.7923 10.4698 20.7776 10.4894C20.7628 10.509 20.7505 10.5379 20.7518 10.5799L21.3716 30.1953C21.3716 30.1953 21.3716 30.1953 21.3716 30.1953C21.3728 30.233 21.3814 30.2525 21.3871 30.2623C21.3927 30.272 21.4053 30.2895 21.4382 30.3113C21.4712 30.3331 21.4931 30.3384 21.5049 30.3401C21.5167 30.3418 21.5392 30.343 21.5778 30.3316L44.905 23.4669L44.941 7.46519C44.9411 7.42778 44.9332 7.40833 44.9281 7.39856C44.923 7.3888 44.9113 7.37108 44.8794 7.34816C44.8476 7.32529 44.8263 7.31921 44.8149 7.31704C44.8035 7.31488 44.7812 7.31269 44.7423 7.32217ZM44.291 5.7174C44.8842 5.57298 45.4854 5.6871 45.9705 6.03622C46.4554 6.38532 46.7252 6.89811 46.7239 7.46861L46.6866 24.0765C46.6858 24.4376 46.434 24.7567 46.064 24.8656L22.1156 31.9132C21.5248 32.0871 20.9112 31.9975 20.4059 31.6638C19.9007 31.3299 19.6077 30.8203 19.5894 30.2442L18.9696 10.6287C18.9696 10.6287 18.9696 10.6287 18.9696 10.6287C18.9442 9.8257 19.4759 9.11707 20.2949 8.86245M20.2949 8.86245L27.1411 6.73405C27.1411 6.73406 27.1411 6.73404 27.1411 6.73405C27.7449 6.54631 28.3785 6.63651 28.8944 6.98367C28.8944 6.98366 28.8944 6.98367 28.8944 6.98367L31.5421 8.76565C31.574 8.78711 31.5946 8.79247 31.6052 8.79431C31.6158 8.79616 31.637 8.79811 31.6752 8.78883C31.6752 8.78884 31.6752 8.78883 31.6752 8.78883L44.291 5.7174" fill="white"/>
<path d="M15.2577 20.0043L9.89256 21.3711C9.33058 21.5142 8.9841 22.001 9.11867 22.4583C9.25325 22.9155 9.81792 23.1701 10.3799 23.027L15.7451 21.6601C16.3071 21.517 16.6535 21.0302 16.519 20.573C16.3844 20.1157 15.8197 19.8611 15.2577 20.0043Z" fill="white"/>
<path d="M15.359 15.6153L11.9773 16.4768C11.6231 16.567 11.445 17.0109 11.5796 17.4681C11.7142 17.9254 12.1104 18.2229 12.4647 18.1327L15.8463 17.2712C16.2006 17.1809 16.3786 16.7371 16.244 16.2798C16.1095 15.8226 15.7132 15.5251 15.359 15.6153Z" fill="white"/>
<path d="M15.1968 24.4536L7.9193 26.3076C7.15702 26.5018 6.64816 27.0299 6.78274 27.4871C6.91731 27.9444 7.64436 28.1576 8.40665 27.9634L15.6841 26.1095C16.4464 25.9153 16.9553 25.3872 16.8207 24.9299C16.6861 24.4726 15.959 24.2594 15.1968 24.4536Z" fill="white"/>
<path d="M7.07416 22.0891L4.39159 22.7725C4.1106 22.8441 3.99191 23.2728 4.12649 23.73C4.26106 24.1873 4.59795 24.5 4.87894 24.4284L7.56151 23.745C7.8425 23.6734 7.96119 23.2447 7.82661 22.7874C7.69203 22.3301 7.35515 22.0175 7.07416 22.0891Z" fill="white"/>
<path d="M2.0221 23.3757L0.32237 23.8087C0.14433 23.8541 0.109097 24.2616 0.243674 24.7188C0.378252 25.1761 0.631678 25.51 0.809718 25.4646L2.50945 25.0316C2.68749 24.9863 2.72272 24.5788 2.58815 24.1215C2.45357 23.6643 2.20014 23.3304 2.0221 23.3757Z" fill="white"/>
<path d="M5.01885 27.0458L2.90813 27.5836C2.68704 27.6399 2.61691 28.0562 2.75149 28.5135C2.88606 28.9707 3.17439 29.2958 3.39548 29.2394L5.50619 28.7017C5.72728 28.6454 5.79741 28.2291 5.66284 27.7718C5.52826 27.3145 5.23993 26.9895 5.01885 27.0458Z" fill="white"/>
<path fill-rule="evenodd" clip-rule="evenodd" d="M26.9275 14.0658L52.551 7.10003C52.8344 7.023 53.1223 7.10174 53.3157 7.30934C53.5092 7.51685 53.5523 7.79317 53.4301 8.04328L46.2205 22.8116C46.0804 23.0986 45.8346 23.2782 45.5182 23.391L24.2115 30.9833C23.8646 31.1068 21.1669 30.6752 20.9194 30.4172C20.672 30.1592 20.6435 29.8221 20.7654 29.4955L26.3436 14.5398C26.4356 14.2933 26.6583 14.1389 26.9275 14.0658Z" fill="#212066"/>
<path fill-rule="evenodd" clip-rule="evenodd" d="M28.429 15.7172L51.7542 9.3763C52.0121 9.30619 52.2742 9.37786 52.4503 9.56682C52.6264 9.75572 52.6656 10.0073 52.5544 10.2349L45.9915 23.6785C45.8639 23.9399 45.6463 24.1193 45.3522 24.2059L22.3069 30.9878C21.9844 31.0827 21.6521 30.9978 21.4268 30.7629C21.2016 30.5281 21.1487 30.2114 21.2866 29.924L27.8976 16.1487C28.0017 15.9319 28.184 15.7838 28.429 15.7172Z" fill="url(#paint1_linear_651_5555)"/>
<path fill-rule="evenodd" clip-rule="evenodd" d="M51.7436 9.89215C51.7436 9.89217 51.7436 9.89213 51.7436 9.89215V9.89215ZM51.5457 10.2975L45.1807 23.3357C45.1649 23.368 45.151 23.3814 45.1437 23.3873C45.1365 23.3933 45.1205 23.4046 45.0842 23.4153C45.0841 23.4153 45.0842 23.4153 45.0842 23.4153L22.1481 30.165L28.7028 16.5073L51.5457 10.2975ZM53.1246 9.02357C52.7201 8.58966 52.0973 8.4194 51.505 8.58037L28.1799 14.9213C28.1799 14.9213 28.1799 14.9213 28.1799 14.9213C27.6837 15.0562 27.2952 15.3718 27.0845 15.8107L20.4734 29.586C20.1924 30.1716 20.3036 30.8369 20.7625 31.3153C21.2215 31.7938 21.9194 31.9722 22.5767 31.7787L45.6219 24.9969C46.1569 24.8394 46.5719 24.4972 46.804 24.0217L53.3669 10.5782C53.6222 10.0554 53.5291 9.4575 53.1246 9.02357ZM21.4277 30.7631L21.4284 30.7626L21.4277 30.7631Z" fill="white"/>
<path fill-rule="evenodd" clip-rule="evenodd" d="M54.6113 26.9265L58.877 4.98777L58.0358 4.83362L52.0642 26.5636C52.0058 26.7815 52.0496 26.9915 52.1918 27.1724C52.3338 27.3534 52.5343 27.455 52.7734 27.4669L53.809 27.5191C54.1993 27.5386 54.5396 27.2872 54.6113 26.9265Z" fill="white"/>
<path fill-rule="evenodd" clip-rule="evenodd" d="M57.1838 0.00822488C57.3919 -0.0334974 57.6215 0.0873261 57.6435 0.284202L57.7528 1.2646C57.7748 1.46147 57.777 1.62795 57.5689 1.66967C57.3676 1.71005 57.3129 1.56442 57.2457 1.38562L57.239 1.36769L56.8872 0.43589C56.8168 0.249096 56.9758 0.0499472 57.1838 0.00822488ZM56.1155 1.84333L57.6992 3.16102C57.7474 3.20114 57.8071 3.21686 57.8708 3.20626C57.9346 3.19556 57.9846 3.16148 58.0148 3.10834L59.0065 1.3605C59.0499 1.28403 59.1393 1.24531 59.2301 1.26376C59.3209 1.28222 59.3848 1.35207 59.39 1.43841L59.5082 3.41177C59.5119 3.47179 59.542 3.5222 59.5953 3.55668C59.6485 3.59112 59.7097 3.59985 59.7715 3.58212L61.8014 2.99868C61.8899 2.97319 61.9826 3.00468 62.0328 3.07742C62.083 3.14985 62.0752 3.24147 62.0133 3.30589L60.5969 4.77925C60.5538 4.82417 60.537 4.8797 60.5483 4.9389C60.5598 4.9983 60.5965 5.04478 60.6536 5.07296L62.5323 5.99561C62.6144 6.03598 62.656 6.11917 62.6362 6.2036C62.6164 6.28808 62.5413 6.34753 62.4485 6.35234L60.3275 6.46236C60.2629 6.46577 60.2088 6.49384 60.1717 6.54332C60.1347 6.59285 60.1253 6.64977 60.1444 6.70731L60.7715 8.59588C60.7988 8.67829 60.7651 8.76443 60.6868 8.81111C60.609 8.85785 60.5105 8.85061 60.4413 8.79297L58.8576 7.47533C58.8094 7.43521 58.7497 7.41949 58.686 7.43009C58.6222 7.44074 58.5722 7.47486 58.542 7.52801L57.5502 9.27585C57.5068 9.35226 57.4175 9.39099 57.3267 9.37253C57.2359 9.35412 57.172 9.28422 57.1668 9.19794L57.0486 7.22458C57.0449 7.1645 57.0148 7.11415 56.9615 7.07966C56.9083 7.04518 56.8471 7.03649 56.7853 7.05422L54.7554 7.63767C54.6668 7.6631 54.5742 7.63167 54.5241 7.55893C54.4738 7.48649 54.4816 7.39488 54.5435 7.33046L55.9598 5.85705C56.003 5.81217 56.0198 5.75659 56.0085 5.6974C55.997 5.63804 55.9603 5.59151 55.9032 5.56339L54.0246 4.64069C53.9424 4.60036 53.9008 4.51718 53.9206 4.4327C53.9404 4.34827 54.0155 4.28882 54.1083 4.28401L56.2293 4.17399C56.2939 4.17057 56.348 4.1425 56.3851 4.09297C56.4221 4.0435 56.4315 3.98652 56.4124 3.92903L55.7853 2.04041C55.758 1.95805 55.7916 1.87171 55.8698 1.82503C55.948 1.77839 56.0463 1.78568 56.1155 1.84333ZM61.6562 1.34019C61.7902 1.18648 61.7197 0.949952 61.5408 0.842622C61.362 0.73524 61.0983 0.771482 61.0061 0.9499L60.5466 1.84018L60.5378 1.85728C60.4493 2.02787 60.3773 2.16686 60.5504 2.27075C60.7292 2.37813 60.8542 2.25901 60.9883 2.1053L61.6562 1.34019ZM63.9861 4.29872C64.0309 4.49223 63.901 4.70591 63.6894 4.72638L62.6357 4.82803C62.424 4.8485 62.2451 4.85052 62.2003 4.65695C62.1569 4.46962 62.3134 4.41875 62.5056 4.35629L62.5249 4.35001L63.5264 4.02274C63.7272 3.95724 63.9412 4.10515 63.9861 4.29872ZM62.5544 8.45942C62.7196 8.58412 62.9738 8.51851 63.0892 8.35214C63.2046 8.18572 63.1656 7.94035 62.9739 7.85457L62.017 7.42712L61.9985 7.41885C61.8152 7.33662 61.6658 7.26963 61.5542 7.43063C61.4388 7.597 61.5668 7.71328 61.732 7.83798L62.5544 8.45942ZM59.3738 10.6284C59.1658 10.6702 58.9362 10.5494 58.9141 10.3525L58.8049 9.37203C58.7829 9.17516 58.7807 9.00868 58.9888 8.96696C59.1901 8.92659 59.2448 9.07222 59.3119 9.25094L59.3187 9.26894L59.6704 10.2007C59.7408 10.3876 59.5819 10.5867 59.3738 10.6284ZM54.9028 9.29689C54.7687 9.4506 54.8392 9.68708 55.0181 9.79441C55.1969 9.90179 55.4607 9.8656 55.5529 9.68713L56.0123 8.79685L56.0212 8.77957C56.1096 8.60906 56.1816 8.47013 56.0085 8.36628C55.8297 8.2589 55.7047 8.37802 55.5707 8.53173L54.9028 9.29689ZM52.5714 6.33799C52.5265 6.14443 52.6563 5.9308 52.8679 5.91027L53.9217 5.80863C54.1334 5.78816 54.3123 5.78614 54.3571 5.97971C54.4005 6.16702 54.244 6.2179 54.0519 6.28035L54.0326 6.28665L53.031 6.61392C52.8302 6.67948 52.6162 6.53151 52.5714 6.33799ZM54.0022 2.17734C53.837 2.05258 53.5829 2.11824 53.4675 2.28461C53.3521 2.45099 53.391 2.69636 53.5828 2.78213L54.5397 3.20959C54.5459 3.21234 54.552 3.21509 54.5581 3.21782C54.7414 3.30011 54.8908 3.36715 55.0025 3.20612C55.1179 3.03975 54.9899 2.92343 54.8247 2.79872L54.0022 2.17734Z" fill="url(#paint2_linear_651_5555)"/>
<defs>
<linearGradient id="paint0_linear_651_5555" x1="31.4335" y1="8.03374" x2="35.8602" y2="23.1757" gradientUnits="userSpaceOnUse">
<stop stop-color="#4C63DC"/>
<stop offset="1" stop-color="#A1D2FF"/>
</linearGradient>
<linearGradient id="paint1_linear_651_5555" x1="29.8613" y1="30.9912" x2="43.2401" y2="10.6036" gradientUnits="userSpaceOnUse">
<stop stop-color="#4C63DC"/>
<stop offset="1" stop-color="#C5A1FF"/>
</linearGradient>
<linearGradient id="paint2_linear_651_5555" x1="58.2788" y1="0" x2="58.2788" y2="10.6367" gradientUnits="userSpaceOnUse">
<stop stop-color="#7B4CDC"/>
<stop offset="1" stop-color="#DBA1FF"/>
</linearGradient>
</defs>
</svg>
