<svg width="159" height="86" viewBox="0 0 159 86" fill="none" xmlns="http://www.w3.org/2000/svg">
<path fill-rule="evenodd" clip-rule="evenodd" d="M53.7517 28.2641L70.6772 22.5548C71.4962 22.2785 72.3217 22.406 73.0213 22.917L79.5672 27.697C80.2178 28.1721 80.969 28.314 81.7458 28.1089L112.935 19.8701C113.74 19.6574 114.522 19.8184 115.181 20.3326C115.839 20.8467 116.19 21.5705 116.188 22.4106L116.096 66.9597L56.8895 85.8641C56.0878 86.1202 55.2893 85.9938 54.6036 85.5023C53.9181 85.0108 53.5368 84.2914 53.512 83.4428L51.9797 30.8265C51.9455 29.6531 52.6487 28.6361 53.7517 28.2641Z" fill="url(#paint0_linear_55_840)"/>
<path fill-rule="evenodd" clip-rule="evenodd" d="M111.923 20.3412C111.923 20.3413 111.923 20.3412 111.923 20.3412L81.9739 28.5132C80.6164 28.8835 79.2434 28.6158 78.1058 27.7577C78.1058 27.7577 78.1059 27.7578 78.1058 27.7577L71.8202 23.0165C71.7413 22.957 71.6877 22.9422 71.658 22.9375C71.6283 22.9327 71.5729 22.9301 71.4805 22.9623L55.228 28.6253C55.1263 28.6607 55.0672 28.716 55.0323 28.7682C54.9973 28.8203 54.9679 28.8971 54.9711 29.0089L56.4424 81.1981C56.4424 81.1981 56.4424 81.1982 56.4424 81.1981C56.4453 81.2983 56.4659 81.3502 56.4792 81.3762C56.4926 81.4023 56.5224 81.4487 56.6007 81.5067C56.679 81.5646 56.7309 81.5787 56.7589 81.5833C56.7869 81.5879 56.8404 81.591 56.932 81.5608L112.309 63.2962L112.395 20.7218C112.395 20.6222 112.376 20.5705 112.364 20.5445C112.352 20.5185 112.324 20.4714 112.248 20.4104C112.173 20.3495 112.122 20.3334 112.095 20.3276C112.068 20.3218 112.015 20.316 111.923 20.3412ZM110.851 16.0715C112.26 15.6873 113.687 15.9909 114.838 16.9198C115.99 17.8486 116.63 19.213 116.627 20.7309L116.538 64.9184C116.537 65.879 115.939 66.728 115.06 67.0177L58.2086 85.7687C56.8061 86.2314 55.3494 85.9931 54.15 85.1051C52.9506 84.2168 52.255 82.8611 52.2117 81.3281L50.7403 29.1388C50.7403 29.1387 50.7404 29.1388 50.7403 29.1388C50.6801 27.0022 51.9422 25.1168 53.8866 24.4394M53.8866 24.4394L70.1388 18.7765C70.1387 18.7765 70.1388 18.7765 70.1388 18.7765C71.5722 18.277 73.0765 18.517 74.301 19.4406C74.301 19.4406 74.301 19.4406 74.301 19.4406L80.5866 24.1818C80.6622 24.2389 80.7111 24.2532 80.7362 24.2581C80.7614 24.263 80.8119 24.2682 80.9024 24.2435C80.9024 24.2435 80.9025 24.2435 80.9024 24.2435L110.851 16.0715" fill="black"/>
<path fill-rule="evenodd" clip-rule="evenodd" d="M69.6228 38.2827L130.451 19.7495C131.124 19.5445 131.807 19.754 132.267 20.3064C132.726 20.8585 132.828 21.5937 132.538 22.2591L115.423 61.5521C115.091 62.3156 114.507 62.7937 113.756 63.0935L63.1753 83.2938C62.3519 83.6224 55.9476 82.4741 55.3602 81.7876C54.7728 81.1013 54.7051 80.2045 54.9944 79.3355L68.2369 39.5439C68.4551 38.8882 68.9838 38.4773 69.6228 38.2827Z" fill="white"/>
<path fill-rule="evenodd" clip-rule="evenodd" d="M71.5226 42.0195L129.188 25.0107C129.826 24.8227 130.474 25.0149 130.909 25.5218C131.344 26.0285 131.441 26.7032 131.166 27.3139L114.941 63.3749C114.626 64.076 114.088 64.5574 113.361 64.7896L56.3873 82.9813C55.5899 83.2359 54.7684 83.0082 54.2115 82.3782C53.6547 81.7483 53.5238 80.8987 53.8647 80.1277L70.2088 43.1771C70.4661 42.5955 70.9169 42.1982 71.5226 42.0195Z" fill="url(#paint1_linear_55_840)"/>
<path fill-rule="evenodd" clip-rule="evenodd" d="M128.526 27.1797C128.526 27.1797 128.526 27.1796 128.526 27.1797V27.1797ZM128.057 28.2581L112.946 62.948C112.909 63.0338 112.876 63.0695 112.859 63.0853C112.842 63.1012 112.804 63.1313 112.717 63.1598C112.717 63.1598 112.717 63.1598 112.717 63.1598L58.2687 81.1183L73.829 44.7801L128.057 28.2581ZM131.805 24.8687C130.845 23.7143 129.366 23.2613 127.96 23.6895L72.5878 40.5603C72.5877 40.5603 72.5878 40.5603 72.5878 40.5603C71.4098 40.9192 70.4875 41.7589 69.9873 42.9268L54.2931 79.5777C53.6261 81.1356 53.8901 82.9058 54.9795 84.1788C56.0689 85.4519 57.7258 85.9264 59.2861 85.4117L113.994 67.3677C115.264 66.9487 116.249 66.0384 116.8 64.7731L132.38 29.005C132.986 27.6139 132.765 26.0233 131.805 24.8687ZM56.5585 82.7096L56.5601 82.7081L56.5585 82.7096Z" fill="black"/>
<path fill-rule="evenodd" clip-rule="evenodd" d="M135.327 72.5025L145.453 14.1318L143.457 13.7217L129.28 71.5369C129.142 72.1169 129.246 72.6755 129.583 73.1568C129.92 73.6384 130.396 73.9086 130.964 73.9405L133.422 74.0792C134.349 74.1312 135.157 73.4623 135.327 72.5025Z" fill="black"/>
<path fill-rule="evenodd" clip-rule="evenodd" d="M141.207 0.0226106C141.734 -0.092086 142.316 0.240063 142.372 0.781283L142.649 3.47644C142.705 4.01766 142.71 4.47531 142.183 4.59C141.673 4.70101 141.534 4.30066 141.364 3.80914L141.347 3.75984L140.456 1.19828C140.277 0.684776 140.68 0.137307 141.207 0.0226106ZM138.502 5.06766L142.514 8.69005C142.636 8.80034 142.788 8.84355 142.949 8.81441C143.111 8.78499 143.237 8.69133 143.314 8.54522L145.827 3.74033C145.937 3.53013 146.163 3.42367 146.393 3.47441C146.623 3.52515 146.785 3.71716 146.798 3.95451L147.098 9.37937C147.107 9.54438 147.183 9.68295 147.318 9.77775C147.453 9.8724 147.608 9.89642 147.765 9.84767L152.908 8.24377C153.132 8.1737 153.367 8.26025 153.494 8.46023C153.621 8.65935 153.602 8.9112 153.445 9.08829L149.856 13.1386C149.747 13.2621 149.704 13.4148 149.733 13.5775C149.762 13.7408 149.855 13.8686 150 13.946L154.76 16.4825C154.968 16.5935 155.073 16.8221 155.023 17.0542C154.973 17.2865 154.782 17.4499 154.547 17.4631L149.173 17.7656C149.01 17.775 148.873 17.8521 148.779 17.9881C148.685 18.1243 148.661 18.2808 148.709 18.439L150.298 23.6307C150.368 23.8573 150.282 24.0941 150.084 24.2224C149.887 24.3509 149.637 24.331 149.462 24.1725L145.449 20.5503C145.327 20.44 145.176 20.3968 145.014 20.4259C144.853 20.4552 144.726 20.549 144.65 20.6951L142.137 25.5C142.027 25.71 141.8 25.8165 141.57 25.7658C141.34 25.7152 141.179 25.523 141.165 25.2858L140.866 19.861C140.857 19.6958 140.78 19.5574 140.645 19.4626C140.51 19.3678 140.355 19.3439 140.199 19.3926L135.055 20.9965C134.831 21.0665 134.596 20.9801 134.469 20.7801C134.342 20.581 134.362 20.3291 134.519 20.152L138.107 16.1015C138.216 15.9782 138.259 15.8254 138.23 15.6627C138.201 15.4995 138.108 15.3716 137.964 15.2943L133.204 12.7577C132.996 12.6469 132.89 12.4182 132.94 12.1859C132.991 11.9539 133.181 11.7904 133.416 11.7772L138.79 11.4747C138.954 11.4654 139.091 11.3882 139.185 11.252C139.278 11.116 139.302 10.9594 139.254 10.8013L137.665 5.60945C137.596 5.38304 137.681 5.14569 137.879 5.01734C138.077 4.88915 138.326 4.90919 138.502 5.06766ZM152.542 3.68384C152.882 3.2613 152.703 2.61107 152.25 2.31601C151.797 2.02081 151.129 2.12045 150.895 2.61093L149.731 5.05835L149.709 5.10534C149.485 5.57431 149.302 5.95641 149.741 6.24199C150.194 6.53719 150.51 6.20972 150.85 5.78718L152.542 3.68384ZM158.439 11.8188C158.553 12.3508 158.224 12.9382 157.688 12.9945L155.018 13.2739C154.482 13.3302 154.028 13.3357 153.915 12.8036C153.805 12.2886 154.201 12.1488 154.688 11.9771L154.737 11.9598L157.275 11.0601C157.783 10.8801 158.326 11.2867 158.439 11.8188ZM154.827 23.2545C155.246 23.5973 155.89 23.417 156.182 22.9596C156.475 22.5021 156.376 21.8276 155.89 21.5918L153.466 20.4167L153.419 20.394C152.955 20.1679 152.576 19.9837 152.293 20.4263C152.001 20.8837 152.325 21.2034 152.744 21.5462L154.827 23.2545ZM146.755 29.217C146.228 29.3319 145.647 28.9997 145.591 28.4585L145.314 25.7632C145.258 25.222 145.253 24.7643 145.78 24.6496C146.29 24.5387 146.429 24.939 146.599 25.4303L146.616 25.4798L147.507 28.0414C147.685 28.555 147.283 29.1023 146.755 29.217ZM135.431 25.5574C135.091 25.9799 135.27 26.63 135.723 26.9251C136.176 27.2203 136.844 27.1208 137.078 26.6302L138.242 24.1827L138.265 24.1352C138.489 23.6665 138.671 23.2846 138.233 22.9991C137.779 22.7039 137.463 23.0314 137.123 23.4539L135.431 25.5574ZM129.522 17.4226C129.409 16.8905 129.738 16.3032 130.274 16.2468L132.944 15.9674C133.48 15.9111 133.933 15.9055 134.047 16.4377C134.157 16.9526 133.76 17.0925 133.274 17.2641L133.225 17.2815L130.687 18.1811C130.178 18.3613 129.636 17.9546 129.522 17.4226ZM133.149 5.98564C132.731 5.64269 132.087 5.82319 131.794 6.28055C131.502 6.73792 131.601 7.41245 132.087 7.64824L134.511 8.82334C134.527 8.83092 134.542 8.83848 134.558 8.84598C135.022 9.0722 135.401 9.25649 135.683 8.81382C135.976 8.35646 135.652 8.03667 135.233 7.69386L133.149 5.98564Z" fill="url(#paint2_linear_55_840)"/>
<rect width="14.1688" height="5.23859" rx="2.61929" transform="matrix(0.975847 -0.218454 0.205333 0.978692 30.7227 44.4473)" fill="black"/>
<rect width="19.9816" height="5.23859" rx="2.61929" transform="matrix(0.975847 -0.218454 0.205333 0.978692 25.5156 56.1831)" fill="black"/>
<rect width="24.7045" height="5.23859" rx="2.61929" transform="matrix(0.975847 -0.218454 0.205333 0.978692 21.9375 68.1807)" fill="black"/>
<rect width="10.8991" height="5.23859" rx="2.61929" transform="matrix(0.975847 -0.218454 0.205333 0.978692 11.3359 59.3574)" fill="black"/>
<rect width="13.4422" height="5.23859" rx="2.61929" transform="matrix(0.975847 -0.218454 0.205333 0.978692 5.27148 71.9106)" fill="black"/>
<rect width="6.53943" height="5.23859" rx="2.61929" transform="matrix(0.975847 -0.218454 0.205333 0.978692 2.11719 61.4199)" fill="black"/>
<defs>
<linearGradient id="paint0_linear_55_840" x1="80.5925" y1="23.9309" x2="93.2986" y2="63.9886" gradientUnits="userSpaceOnUse">
<stop stop-color="#4C63DC"/>
<stop offset="1" stop-color="#A1D2FF"/>
</linearGradient>
<linearGradient id="paint1_linear_55_840" x1="75.0636" y1="82.9904" x2="112.029" y2="31.0725" gradientUnits="userSpaceOnUse">
<stop stop-color="#4C63DC"/>
<stop offset="1" stop-color="#C5A1FF"/>
</linearGradient>
<linearGradient id="paint2_linear_55_840" x1="143.981" y1="0" x2="143.981" y2="29.2397" gradientUnits="userSpaceOnUse">
<stop stop-color="#7B4CDC"/>
<stop offset="1" stop-color="#DBA1FF"/>
</linearGradient>
</defs>
</svg>
