<svg width="20" height="20" viewBox="0 0 20 20" fill="none" xmlns="http://www.w3.org/2000/svg">
<g clip-path="url(#clip0_71_800)">
<path d="M5 2C7.4 0.8 9.33334 4.16667 10 6C11.2 1.6 13.8333 1.16667 15 1.5C18.6 2.3 19.1667 5.5 19 7C20.2 9.8 13.5 15.8333 10 18.5L4.5 13.5C-1.9 5.9 2.16667 2.66667 5 2Z" fill="black" fill-opacity="0.7"/>
<path d="M14.5833 0.764168C13.645 0.778764 12.727 1.04071 11.9223 1.52356C11.1176 2.00641 10.4545 2.69306 10 3.51417C9.54553 2.69306 8.88244 2.00641 8.0777 1.52356C7.27295 1.04071 6.35504 0.778764 5.41667 0.764168C3.92078 0.82916 2.51142 1.48355 1.49648 2.58436C0.481548 3.68518 -0.0564605 5.14294 -1.69734e-06 6.63917C-1.69734e-06 12.285 9.13 18.8058 9.51833 19.0825L10 19.4233L10.4817 19.0825C10.87 18.8075 20 12.285 20 6.63917C20.0565 5.14294 19.5184 3.68518 18.5035 2.58436C17.4886 1.48355 16.0792 0.82916 14.5833 0.764168ZM10 17.3717C7.28916 15.3467 1.66666 10.3717 1.66666 6.63917C1.6097 5.58476 1.97197 4.55061 2.67447 3.76225C3.37697 2.97389 4.36269 2.49529 5.41667 2.43083C6.47064 2.49529 7.45636 2.97389 8.15886 3.76225C8.86136 4.55061 9.22363 5.58476 9.16666 6.63917H10.8333C10.7764 5.58476 11.1386 4.55061 11.8411 3.76225C12.5436 2.97389 13.5294 2.49529 14.5833 2.43083C15.6373 2.49529 16.623 2.97389 17.3255 3.76225C18.028 4.55061 18.3903 5.58476 18.3333 6.63917C18.3333 10.3733 12.7108 15.3467 10 17.3717Z" fill="white"/>
</g>
<defs>
<clipPath id="clip0_71_800">
<rect width="20" height="20" fill="white"/>
</clipPath>
</defs>
</svg>
