<svg width="96" height="32" viewBox="0 0 96 32" fill="none" xmlns="http://www.w3.org/2000/svg">
<path d="M24.8686 15.3349C25.0822 15.3349 25.2512 15.4343 25.3758 15.633C25.4974 15.8287 25.5582 16.0986 25.5582 16.4427C25.5582 17.0803 25.4025 17.589 25.0911 17.9686C24.3051 18.9177 23.5103 19.6502 22.7065 20.1663C21.9057 20.6823 20.9552 20.9404 19.8549 20.9404C18.6448 20.9404 17.6542 20.5845 16.8831 19.8727C16.112 19.1579 15.3913 18.0472 14.721 16.5405C14.2286 15.461 13.8223 14.6542 13.502 14.1204C13.1847 13.5865 12.8703 13.2099 12.5589 12.9904C12.2475 12.768 11.853 12.633 11.3755 12.5856L11.1086 14.4007C10.7645 16.7437 10.0957 18.4327 9.10218 19.4678C8.11159 20.4999 6.74878 21.016 5.01376 21.016C3.88081 21.016 2.87687 20.7416 2.00195 20.193C1.12406 19.6413 0.513091 18.9399 0.169053 18.0887C0.0563511 17.7951 0 17.4763 0 17.1322C0 16.6399 0.114185 16.2128 0.342555 15.851C0.570925 15.4921 0.866027 15.3127 1.22786 15.3127C1.4414 15.3127 1.62083 15.366 1.76616 15.4728C1.91445 15.5796 2.05385 15.7635 2.18435 16.0245C2.69447 16.9765 3.14083 17.6409 3.52343 18.0175C3.90899 18.3942 4.38945 18.5825 4.96483 18.5825C5.62028 18.5825 6.18082 18.283 6.64646 17.6839C7.1121 17.0848 7.44427 16.1639 7.64299 14.9212L7.98554 12.5856H7.59405C7.21739 12.5856 6.92229 12.4788 6.70874 12.2653C6.4952 12.0517 6.38843 11.7566 6.38843 11.38C6.38843 10.9529 6.49965 10.6133 6.72209 10.3612C6.94156 10.1061 7.2159 9.97859 7.54511 9.97859H8.35479C8.47046 9.17485 8.55202 8.61727 8.59947 8.30585L9.36021 2.77603C8.9361 2.72858 8.53571 2.70485 8.15904 2.70485C6.7651 2.70485 5.70777 2.94657 4.98707 3.43C4.26637 3.91343 3.90602 4.60596 3.90602 5.50758C3.90602 5.91686 3.95051 6.24755 4.03948 6.49965C4.13142 6.75471 4.25154 7.03795 4.39983 7.34937C4.46508 7.47986 4.49771 7.62667 4.49771 7.7898C4.49771 8.15163 4.32865 8.46749 3.99055 8.73738C3.65541 9.00728 3.28319 9.14222 2.87391 9.14222C2.34895 9.14222 1.96339 8.91385 1.71723 8.45711C1.22786 7.58812 0.983178 6.65388 0.983178 5.65439C0.983178 4.62227 1.26493 3.67913 1.82844 2.82497C2.39492 1.97377 3.25205 1.29014 4.39983 0.774086C5.54465 0.258029 6.96084 0 8.64841 0C9.3869 0 10.0631 0.0415213 10.677 0.124565C11.291 0.204643 11.9672 0.36035 12.7057 0.591686C13.5065 0.837852 13.9069 1.29607 13.9069 1.96636C13.9069 2.86797 13.5228 3.31878 12.7546 3.31878L11.7937 9.92965C13.7126 9.73391 15.2741 8.91088 16.4782 7.46059C17.6824 6.01029 18.6863 4.03948 19.4901 1.54817C19.6354 1.09143 19.8845 0.739978 20.2375 0.493813C20.5904 0.247648 21.0367 0.124565 21.5765 0.124565C22.0362 0.124565 22.3921 0.226887 22.6442 0.43153C22.8993 0.636174 23.0268 0.926827 23.0268 1.30349C23.0268 1.41916 22.9942 1.60749 22.929 1.86848C22.1104 4.57333 20.9389 6.71913 19.4144 8.30585C17.89 9.89555 16.2261 10.9529 14.4229 11.4778C15.0457 11.6261 15.5588 11.8471 15.9622 12.1407C16.3626 12.4373 16.7022 12.8021 16.981 13.2351C17.2597 13.6681 17.5786 14.2702 17.9374 15.0413C18.4476 16.1238 18.9236 16.8905 19.3655 17.3413C19.8074 17.7921 20.3235 18.0175 20.9137 18.0175C21.4386 18.0175 21.9384 17.841 22.4129 17.4881C22.8874 17.1352 23.4851 16.5331 24.2058 15.6819C24.4045 15.4506 24.6254 15.3349 24.8686 15.3349ZM26.1009 20.9404C25.0836 20.9404 24.2725 20.5711 23.6675 19.8326C23.0595 19.0971 22.7555 18.1317 22.7555 16.9365C22.7555 15.6256 23.0595 14.3844 23.6675 13.2128C24.2725 12.0413 25.0792 11.0982 26.0876 10.3834C27.096 9.67162 28.1652 9.31572 29.2951 9.31572C29.654 9.31572 29.8957 9.38542 30.0203 9.52481C30.1419 9.66421 30.2442 9.91334 30.3273 10.2722C30.6713 10.207 31.0317 10.1743 31.4083 10.1743C32.2121 10.1743 32.6139 10.462 32.6139 11.0374C32.6139 11.3814 32.4908 12.2 32.2447 13.4931C31.868 15.3764 31.6797 16.6873 31.6797 17.4258C31.6797 17.672 31.7405 17.8692 31.8621 18.0175C31.9867 18.1628 32.1468 18.2355 32.3426 18.2355C32.654 18.2355 33.0306 18.0353 33.4725 17.6349C33.9145 17.2345 34.5121 16.5835 35.2654 15.6819C35.4641 15.4506 35.6851 15.3349 35.9283 15.3349C36.1418 15.3349 36.3109 15.4343 36.4354 15.633C36.557 15.8287 36.6178 16.0986 36.6178 16.4427C36.6178 17.0981 36.4621 17.6067 36.1507 17.9686C35.4804 18.802 34.7671 19.5064 34.0108 20.0817C33.2575 20.6542 32.5294 20.9404 31.8265 20.9404C31.2867 20.9404 30.7914 20.7565 30.3406 20.3887C29.8898 20.018 29.5487 19.5138 29.3174 18.8761C28.4662 20.2523 27.394 20.9404 26.1009 20.9404ZM26.9818 18.4579C27.3436 18.4579 27.6891 18.2444 28.0184 17.8173C28.3446 17.3932 28.5819 16.8282 28.7302 16.1223L29.6377 11.6024C28.9496 11.6172 28.3149 11.8752 27.7336 12.3765C27.1523 12.8747 26.6897 13.5332 26.3456 14.3517C26.0016 15.1733 25.8296 16.0423 25.8296 16.9587C25.8296 17.4659 25.9319 17.8425 26.1365 18.0887C26.3412 18.3349 26.6229 18.4579 26.9818 18.4579ZM47.2103 15.3838C47.4239 15.3838 47.5915 15.4876 47.7131 15.6953C47.8376 15.8999 47.8999 16.1579 47.8999 16.4693C47.8999 16.846 47.8421 17.1396 47.7264 17.3502C47.6107 17.5637 47.4313 17.7521 47.1881 17.9152L42.468 21.0872C41.8451 24.4801 41.0295 27.1464 40.0211 29.0861C39.0127 31.0287 37.7315 32 36.1774 32C35.341 32 34.6604 31.742 34.1354 31.2259C33.6105 30.7099 33.348 30.0336 33.348 29.1973C33.348 28.4291 33.5244 27.6432 33.8774 26.8394C34.2303 26.0357 34.8858 25.1133 35.8437 24.0723C36.8017 23.0342 38.1571 21.8435 39.9099 20.4999L39.9855 19.9305C40.1012 19.3255 40.2317 18.4579 40.377 17.328C40.0508 18.5084 39.5926 19.4055 39.0024 20.0195C38.4122 20.6334 37.7893 20.9404 37.1339 20.9404C36.3983 20.9404 35.7963 20.6008 35.3277 19.9216C34.862 19.2394 34.6292 18.3912 34.6292 17.3769C34.6292 16.149 34.7108 15.022 34.8739 13.9958C35.037 12.9726 35.3069 11.8871 35.6836 10.7393C35.8467 10.25 36.0766 9.89851 36.3731 9.68497C36.6668 9.47143 37.1339 9.36466 37.7745 9.36466C38.1334 9.36466 38.3825 9.42249 38.5219 9.53816C38.6613 9.65086 38.731 9.82288 38.731 10.0542C38.731 10.1847 38.6405 10.6266 38.4596 11.38C38.2965 11.985 38.166 12.5337 38.0681 13.026C37.9376 13.6992 37.8234 14.3428 37.7256 14.9568C37.6277 15.5707 37.5788 16.0749 37.5788 16.4693C37.5788 17.0892 37.7508 17.3991 38.0948 17.3991C38.338 17.3991 38.645 17.1545 39.0157 16.6651C39.3835 16.1728 39.7764 15.4269 40.1946 14.4274C40.6128 13.4279 41.0177 12.1985 41.4091 10.7393C41.5426 10.25 41.7443 9.89851 42.0142 9.68497C42.2841 9.47143 42.6889 9.36466 43.2287 9.36466C43.6054 9.36466 43.8678 9.4136 44.0161 9.51147C44.1644 9.60934 44.2386 9.77395 44.2386 10.0053C44.2386 10.4146 44.025 11.8233 43.5979 14.2316L42.9573 18.1866C44.2208 17.2375 45.4501 16.37 46.6454 15.584C46.8589 15.4506 47.0472 15.3838 47.2103 15.3838ZM36.4443 29.6155C36.8566 29.6155 37.3163 29.1409 37.8234 28.1919C38.3306 27.2398 38.8378 25.6575 39.3449 23.445C38.0844 24.5127 37.171 25.484 36.6045 26.359C36.041 27.2369 35.7592 28.0035 35.7592 28.659C35.7592 28.9378 35.8126 29.1661 35.9194 29.3441C36.0261 29.525 36.2011 29.6155 36.4443 29.6155ZM65.4459 6.17044C65.4459 7.56143 65.0855 8.83971 64.3648 10.0053C63.6441 11.1679 62.5957 12.117 61.2195 12.8525C59.8434 13.591 58.2047 14.0255 56.3036 14.156L55.2493 20.0817C54.84 22.3595 53.7248 23.4984 51.9038 23.4984C50.9043 23.4984 49.9834 23.2033 49.1411 22.6131C48.2958 22.0229 47.6196 21.1213 47.1125 19.9082C46.6053 18.6952 46.3517 17.2049 46.3517 15.4372C46.3517 12.1095 46.8885 9.28606 47.9622 6.96677C49.0329 4.65045 50.4743 2.91394 52.2864 1.75726C54.0956 0.603549 56.0901 0.0266924 58.27 0.0266924C59.8093 0.0266924 61.1157 0.296584 62.1894 0.836368C63.263 1.37615 64.0741 2.10872 64.6228 3.03406C65.1715 3.96237 65.4459 5.00783 65.4459 6.17044ZM56.7485 11.6246C60.1058 11.2005 61.7845 9.4566 61.7845 6.39288C61.7845 5.31035 61.4286 4.42949 60.7168 3.75031C60.005 3.06817 58.9032 2.7271 57.4114 2.7271C55.7238 2.7271 54.2527 3.25946 52.9982 4.3242C51.7466 5.39191 50.7797 6.87187 50.0976 8.76408C49.4184 10.6563 49.0788 12.8139 49.0788 15.237C49.0788 16.2543 49.1811 17.1559 49.3858 17.9419C49.5904 18.7278 49.8529 19.3388 50.1732 19.7748C50.4935 20.2078 50.8005 20.4243 51.0941 20.4243C51.5034 20.4243 51.8148 19.8593 52.0284 18.7293L52.838 14.0848C52.2004 13.9869 51.9216 13.9454 52.0017 13.9602C51.5123 13.8772 51.1935 13.7259 51.0452 13.5065C50.8969 13.284 50.8227 13.0008 50.8227 12.6567C50.8227 12.2979 50.9251 12.0117 51.1297 11.7981C51.3344 11.5846 51.6176 11.4778 51.9794 11.4778C52.1425 11.4778 52.2656 11.4867 52.3487 11.5045C52.7402 11.5698 53.0427 11.6098 53.2562 11.6246C53.4698 10.3464 53.7738 8.63506 54.1682 6.49075C54.2661 5.93318 54.49 5.53575 54.84 5.29848C55.1929 5.06122 55.6067 4.94258 56.0812 4.94258C56.6239 4.94258 57.014 5.04491 57.2512 5.24955C57.4885 5.45419 57.6071 5.77747 57.6071 6.21938C57.6071 6.48037 57.5908 6.69243 57.5582 6.85555L56.7485 11.6246ZM67.1186 20.9404C66.1013 20.9404 65.2901 20.5711 64.6851 19.8326C64.0801 19.0971 63.7776 18.1317 63.7776 16.9365C63.7776 15.6256 64.0801 14.3844 64.6851 13.2128C65.2901 12.0413 66.0969 11.0982 67.1052 10.3834C68.1136 9.67162 69.1828 9.31572 70.3128 9.31572C70.6746 9.31572 70.9164 9.38542 71.0379 9.52481C71.1625 9.66421 71.2648 9.91334 71.3449 10.2722C71.689 10.207 72.0493 10.1743 72.426 10.1743C73.2297 10.1743 73.6316 10.462 73.6316 11.0374C73.6316 11.3814 73.5085 12.2 73.2623 13.4931C72.8857 15.3764 72.6973 16.6873 72.6973 17.4258C72.6973 17.672 72.7581 17.8692 72.8797 18.0175C73.0043 18.1628 73.1645 18.2355 73.3602 18.2355C73.6716 18.2355 74.0483 18.0353 74.4902 17.6349C74.9321 17.2345 75.5312 16.5835 76.2875 15.6819C76.4832 15.4506 76.7042 15.3349 76.9504 15.3349C77.1639 15.3349 77.3315 15.4343 77.4531 15.633C77.5747 15.8287 77.6355 16.0986 77.6355 16.4427C77.6355 17.0981 77.4798 17.6067 77.1684 17.9686C76.4981 18.802 75.7863 19.5064 75.033 20.0817C74.2796 20.6542 73.55 20.9404 72.8441 20.9404C72.3044 20.9404 71.8091 20.7565 71.3583 20.3887C70.9075 20.018 70.5679 19.5138 70.3395 18.8761C69.4853 20.2523 68.4117 20.9404 67.1186 20.9404ZM68.0039 18.4579C68.3628 18.4579 68.7068 18.2444 69.036 17.8173C69.3623 17.3932 69.5995 16.8282 69.7478 16.1223L70.6554 11.6024C69.9673 11.6172 69.3326 11.8752 68.7513 12.3765C68.17 12.8747 67.7073 13.5332 67.3633 14.3517C67.0192 15.1733 66.8472 16.0423 66.8472 16.9587C66.8472 17.4659 66.9495 17.8425 67.1542 18.0887C67.3588 18.3349 67.6421 18.4579 68.0039 18.4579ZM94.2249 13.3463C94.2754 13.3285 94.3584 13.3196 94.4741 13.3196C94.7202 13.3196 94.9086 13.4027 95.0391 13.5687C95.1696 13.7319 95.2348 13.9528 95.2348 14.2316C95.2348 14.7388 95.1369 15.1362 94.9412 15.4239C94.7425 15.7086 94.4474 15.9177 94.0559 16.0512C93.3026 16.2944 92.4988 16.416 91.6447 16.416C90.924 16.416 90.2448 16.3181 89.6071 16.1223C89.1326 16.8935 88.6076 17.6883 88.0323 18.5069C87.3768 19.4411 86.8163 20.0803 86.3506 20.4243C85.882 20.7683 85.3541 20.9404 84.7669 20.9404C84.1114 20.9404 83.6146 20.6868 83.2765 20.1796C82.9414 19.6695 82.7323 18.8331 82.6492 17.6705L82.5291 15.8777C82.022 17.2538 81.5667 18.3022 81.1634 19.0229C80.763 19.7436 80.3611 20.2434 79.9577 20.5222C79.5574 20.801 79.0873 20.9404 78.5475 20.9404C77.8742 20.9404 77.3448 20.6779 76.9593 20.1529C76.5767 19.628 76.3364 18.8005 76.2386 17.6705C76.0399 15.3779 75.9405 13.3715 75.9405 11.6513V10.7883C75.9583 10.2485 76.1066 9.87182 76.3854 9.65828C76.6642 9.44474 77.0809 9.33797 77.6355 9.33797C78.0626 9.33797 78.3784 9.43287 78.5831 9.62269C78.7877 9.8125 78.89 10.1284 78.89 10.5703C78.89 12.4536 79.0057 14.9019 79.237 17.9152C80.3492 15.5722 81.3724 13.1313 82.3067 10.5925C82.4876 10.1002 82.7041 9.76801 82.9562 9.59599C83.2113 9.42398 83.5197 9.33797 83.8816 9.33797C84.3235 9.33797 84.6304 9.42843 84.8024 9.60934C84.9745 9.79026 85.0605 10.1106 85.0605 10.5703C85.0605 12.4536 85.1747 14.9019 85.403 17.9152C86.3877 16.459 87.1247 15.2964 87.6141 14.4274C87.3679 13.9528 87.2448 13.3878 87.2448 12.7324C87.2448 12.1748 87.3679 11.6335 87.6141 11.1086C87.8602 10.5836 88.1969 10.158 88.6239 9.83178C89.048 9.50257 89.5315 9.33797 90.0742 9.33797C90.5488 9.33797 90.9329 9.50702 91.2265 9.84513C91.5231 10.1803 91.6713 10.6667 91.6713 11.3043C91.6713 12.0428 91.4741 12.8866 91.0797 13.8357C91.7025 13.8031 92.53 13.6814 93.5621 13.4709L94.2249 13.3463Z" fill="#008DDA"/>
</svg>
