<svg width="16" height="16" viewBox="0 0 16 16" fill="none" xmlns="http://www.w3.org/2000/svg">
<path d="M8.66667 4.66667C9.03467 4.66667 9.33333 4.96467 9.33333 5.33333C9.33333 5.702 9.03467 6 8.66667 6H3.33333C2.96533 6 2.66667 5.702 2.66667 5.33333C2.66667 4.96467 2.96533 4.66667 3.33333 4.66667H8.66667ZM15.7547 13.8293C15.6313 14.0433 15.4073 14.1633 15.176 14.1633C15.0633 14.1633 14.9487 14.1347 14.844 14.074L14.1927 13.6987C13.7893 14.1333 13.264 14.4493 12.6667 14.586V15.3333C12.6667 15.702 12.368 16 12 16C11.632 16 11.3333 15.702 11.3333 15.3333V14.586C10.736 14.4493 10.21 14.134 9.80733 13.6987L9.156 14.074C9.05133 14.1347 8.93667 14.1633 8.824 14.1633C8.59333 14.1633 8.36867 14.0433 8.24533 13.8293C8.062 13.51 8.17133 13.1027 8.49067 12.9193L9.146 12.542C9.06 12.2633 9.00067 11.9733 9.00067 11.6667C9.00067 11.36 9.06 11.07 9.146 10.7913L8.49067 10.414C8.17133 10.2307 8.062 9.82267 8.24533 9.504C8.42933 9.18467 8.838 9.07533 9.156 9.25933L9.80733 9.63467C10.2107 9.2 10.736 8.884 11.3333 8.74733V8C11.3333 7.63133 11.632 7.33333 12 7.33333C12.368 7.33333 12.6667 7.63133 12.6667 8V8.74733C13.264 8.884 13.79 9.19933 14.1927 9.63467L14.844 9.25933C15.1627 9.07533 15.57 9.18533 15.7547 9.504C15.938 9.82333 15.8287 10.2307 15.5093 10.414L14.854 10.7913C14.94 11.07 14.9993 11.36 14.9993 11.6667C14.9993 11.9733 14.94 12.2633 14.854 12.542L15.5093 12.9193C15.8287 13.1027 15.938 13.5107 15.7547 13.8293ZM13.6667 11.6667C13.6667 10.7473 12.9187 10 12 10C11.0813 10 10.3333 10.7473 10.3333 11.6667C10.3333 12.586 11.0813 13.3333 12 13.3333C12.9187 13.3333 13.6667 12.586 13.6667 11.6667ZM7.33333 14.6667H3.33333C2.23067 14.6667 1.33333 13.7693 1.33333 12.6667V4.66667C1.33333 3.564 2.23067 2.66667 3.33333 2.66667H4C4.368 2.66667 4.66667 2.36867 4.66667 2C4.66667 1.63133 4.966 1.33333 5.33333 1.33333H6.66667C7.034 1.33333 7.33333 1.632 7.33333 2C7.33333 2.368 7.632 2.66667 8 2.66667H8.66667C9.76933 2.66667 10.6667 3.564 10.6667 4.66667V5.33333C10.6667 5.702 10.9653 6 11.3333 6C11.7013 6 12 5.702 12 5.33333V4.66667C12 2.82867 10.5047 1.33333 8.66667 1.33333H8.55267C8.27733 0.557333 7.536 0 6.66667 0H5.33333C4.464 0 3.72267 0.557333 3.44733 1.33333H3.33333C1.49533 1.33333 0 2.82867 0 4.66667V12.6667C0 14.5047 1.49533 16 3.33333 16H7.33333C7.70133 16 8 15.702 8 15.3333C8 14.9647 7.70133 14.6667 7.33333 14.6667ZM7.33333 7.33333H3.33333C2.96533 7.33333 2.66667 7.63133 2.66667 8C2.66667 8.36867 2.96533 8.66667 3.33333 8.66667H7.33333C7.70133 8.66667 8 8.36867 8 8C8 7.63133 7.70133 7.33333 7.33333 7.33333ZM6 11.3333C6.368 11.3333 6.66667 11.0353 6.66667 10.6667C6.66667 10.298 6.368 10 6 10H3.33333C2.96533 10 2.66667 10.298 2.66667 10.6667C2.66667 11.0353 2.96533 11.3333 3.33333 11.3333H6Z" fill="#8E8E8E"/>
</svg>
