<svg width="16" height="16" viewBox="0 0 16 16" fill="#008DDA" xmlns="http://www.w3.org/2000/svg">
<path d="M4.66667 15.3333C4.66667 15.7013 4.368 16 4 16H3.33333C1.49533 16 0 14.5047 0 12.6667V6.48268C0 5.37268 0.549333 4.34001 1.46867 3.71934L6.13533 0.570009C7.268 -0.193991 8.732 -0.193991 9.864 0.570009L14.5307 3.71934C14.7407 3.86134 14.9353 4.02734 15.1073 4.21268C15.358 4.48268 15.3427 4.90401 15.0727 5.15468C14.8027 5.40468 14.3813 5.39001 14.1307 5.12001C14.0273 5.00868 13.9113 4.91001 13.7847 4.82468L9.11867 1.67534C8.43933 1.21668 7.56133 1.21668 6.88133 1.67534L2.21467 4.82468C1.66267 5.19734 1.33333 5.81668 1.33333 6.48268V12.6667C1.33333 13.7693 2.23067 14.6667 3.33333 14.6667H4C4.368 14.6667 4.66667 14.9653 4.66667 15.3333ZM11.958 8.63601C11.5673 9.02668 11.5673 9.66001 11.958 10.05C12.3487 10.44 12.982 10.4407 13.372 10.05C13.7627 9.65934 13.7627 9.02601 13.372 8.63601C12.9813 8.24601 12.348 8.24534 11.958 8.63601ZM14.9247 12.2693C14.146 13.048 13.0673 13.4287 11.9827 13.3253L9.894 15.414C9.51667 15.7913 9.014 15.9993 8.48 15.9993H7.34C6.60733 15.9993 6.00933 15.404 6.00667 14.672L6.00067 13.3467C6 13.078 6.10333 12.826 6.29267 12.636C6.482 12.4467 6.73333 12.342 7.00067 12.342H7.32733L7.33 12.0013C7.334 11.454 7.78267 11.0087 8.33 11.0087H8.83733V10.7467C8.364 9.20668 8.928 7.57134 10.2627 6.64668C11.4647 5.81268 13.092 5.78801 14.3107 6.58401C16.2573 7.78268 16.5733 10.6953 14.9253 12.2673L14.9247 12.2693ZM14.6527 9.43401C14.5787 8.72001 14.198 8.10534 13.5807 7.70201C12.8113 7.19868 11.7827 7.21668 11.0213 7.74334C10.15 8.34734 9.794 9.42601 10.1347 10.4273C10.158 10.4967 10.17 10.5687 10.17 10.642V11.6753C10.17 12.0433 9.87133 12.342 9.50333 12.342H8.66L8.65533 13.0133C8.65267 13.3793 8.35467 13.6753 7.98867 13.6753H7.33533L7.33933 14.666H8.47933C8.658 14.666 8.82533 14.5967 8.95133 14.4707L11.276 12.146C11.4333 11.9893 11.6587 11.9207 11.8767 11.9633C12.6433 12.1147 13.4307 11.8767 13.982 11.3253C14.4813 10.826 14.726 10.136 14.6527 9.43268V9.43401Z" fill="#8E8E8E"/>
</svg>
