<svg width="16" height="15" viewBox="0 0 16 15" fill="none" xmlns="http://www.w3.org/2000/svg">
<path d="M11.6667 0.278015C10.916 0.289692 10.1816 0.499251 9.53783 0.885529C8.89404 1.27181 8.36357 1.82113 7.99999 2.47802C7.63642 1.82113 7.10595 1.27181 6.46215 0.885529C5.81835 0.499251 5.08403 0.289692 4.33333 0.278015C3.13662 0.330009 2.00913 0.853518 1.19718 1.73417C0.385232 2.61482 -0.0451745 3.78103 -7.46106e-06 4.97802C-7.46106e-06 8.00935 3.19066 11.32 5.86666 13.5647C6.46414 14.0668 7.21956 14.342 7.99999 14.342C8.78042 14.342 9.53585 14.0668 10.1333 13.5647C12.8093 11.32 16 8.00935 16 4.97802C16.0452 3.78103 15.6148 2.61482 14.8028 1.73417C13.9909 0.853518 12.8634 0.330009 11.6667 0.278015ZM9.27666 12.5447C8.91931 12.8456 8.46716 13.0106 7.99999 13.0106C7.53282 13.0106 7.08067 12.8456 6.72333 12.5447C3.29799 9.67068 1.33333 6.91335 1.33333 4.97802C1.28775 4.13449 1.57757 3.30717 2.13957 2.67648C2.70157 2.0458 3.49015 1.66292 4.33333 1.61135C5.1765 1.66292 5.96509 2.0458 6.52708 2.67648C7.08908 3.30717 7.3789 4.13449 7.33333 4.97802C7.33333 5.15483 7.40356 5.3244 7.52859 5.44942C7.65361 5.57444 7.82318 5.64468 7.99999 5.64468C8.1768 5.64468 8.34637 5.57444 8.4714 5.44942C8.59642 5.3244 8.66666 5.15483 8.66666 4.97802C8.62109 4.13449 8.9109 3.30717 9.4729 2.67648C10.0349 2.0458 10.8235 1.66292 11.6667 1.61135C12.5098 1.66292 13.2984 2.0458 13.8604 2.67648C14.4224 3.30717 14.7122 4.13449 14.6667 4.97802C14.6667 6.91335 12.702 9.67068 9.27666 12.542V12.5447Z" fill="#8E8E8E"/>
</svg>
