<svg width="32" height="32" viewBox="0 0 32 32" fill="none" xmlns="http://www.w3.org/2000/svg">
<path d="M16.0052 17.3332C16.7416 17.3332 17.3385 16.7362 17.3385 15.9998C17.3385 15.2635 16.7416 14.6665 16.0052 14.6665C15.2688 14.6665 14.6719 15.2635 14.6719 15.9998C14.6719 16.7362 15.2688 17.3332 16.0052 17.3332Z" fill="#5A57F2"/>
<path d="M24.0052 17.3332C24.7416 17.3332 25.3385 16.7362 25.3385 15.9998C25.3385 15.2635 24.7416 14.6665 24.0052 14.6665C23.2688 14.6665 22.6719 15.2635 22.6719 15.9998C22.6719 16.7362 23.2688 17.3332 24.0052 17.3332Z" fill="#5A57F2"/>
<path d="M8.00521 17.3332C8.74159 17.3332 9.33854 16.7362 9.33854 15.9998C9.33854 15.2635 8.74159 14.6665 8.00521 14.6665C7.26883 14.6665 6.67188 15.2635 6.67188 15.9998C6.67188 16.7362 7.26883 17.3332 8.00521 17.3332Z" fill="#5A57F2"/>
<path d="M16.0052 17.3332C16.7416 17.3332 17.3385 16.7362 17.3385 15.9998C17.3385 15.2635 16.7416 14.6665 16.0052 14.6665C15.2688 14.6665 14.6719 15.2635 14.6719 15.9998C14.6719 16.7362 15.2688 17.3332 16.0052 17.3332Z" stroke="#5A57F2" stroke-width="1.5" stroke-linecap="round" stroke-linejoin="round"/>
<path d="M24.0052 17.3332C24.7416 17.3332 25.3385 16.7362 25.3385 15.9998C25.3385 15.2635 24.7416 14.6665 24.0052 14.6665C23.2688 14.6665 22.6719 15.2635 22.6719 15.9998C22.6719 16.7362 23.2688 17.3332 24.0052 17.3332Z" stroke="#5A57F2" stroke-width="1.5" stroke-linecap="round" stroke-linejoin="round"/>
<path d="M8.00521 17.3332C8.74159 17.3332 9.33854 16.7362 9.33854 15.9998C9.33854 15.2635 8.74159 14.6665 8.00521 14.6665C7.26883 14.6665 6.67188 15.2635 6.67188 15.9998C6.67188 16.7362 7.26883 17.3332 8.00521 17.3332Z" stroke="#5A57F2" stroke-width="1.5" stroke-linecap="round" stroke-linejoin="round"/>
</svg>
