<svg width="16" height="16" viewBox="0 0 16 16" fill="none" xmlns="http://www.w3.org/2000/svg">
<path d="M9.33073 1.51318V4.26688C9.33073 4.64025 9.33073 4.82693 9.40339 4.96954C9.46731 5.09498 9.56929 5.19697 9.69474 5.26088C9.83734 5.33354 10.024 5.33354 10.3974 5.33354H13.1511M10.6641 10.6668H5.33073M6.66406 8.00016H5.33073M9.33073 1.3335H5.86406C4.74396 1.3335 4.18391 1.3335 3.75608 1.55148C3.37976 1.74323 3.0738 2.04919 2.88205 2.42552C2.66406 2.85334 2.66406 3.41339 2.66406 4.5335V11.4668C2.66406 12.5869 2.66406 13.147 2.88205 13.5748C3.0738 13.9511 3.37976 14.2571 3.75608 14.4488C4.18391 14.6668 4.74396 14.6668 5.86406 14.6668H10.1307C11.2508 14.6668 11.8109 14.6668 12.2387 14.4488C12.615 14.2571 12.921 13.9511 13.1127 13.5748C13.3307 13.147 13.3307 12.5869 13.3307 11.4668V5.3335L9.33073 1.3335Z" stroke="#7A7A7A" stroke-width="1.5" stroke-linecap="round" stroke-linejoin="round"/>
</svg>
