<svg width="16" height="16" viewBox="0 0 16 16" fill="none" xmlns="http://www.w3.org/2000/svg">
<path d="M8.66927 4.66667L7.92558 3.17928C7.71154 2.7512 7.60451 2.53715 7.44485 2.38078C7.30366 2.24249 7.13349 2.13732 6.94665 2.07287C6.73538 2 6.49608 2 6.01747 2H3.46927C2.72253 2 2.34917 2 2.06395 2.14532C1.81307 2.27316 1.60909 2.47713 1.48126 2.72801C1.33594 3.01323 1.33594 3.3866 1.33594 4.13333V4.66667M1.33594 4.66667H11.4693C12.5894 4.66667 13.1494 4.66667 13.5773 4.88465C13.9536 5.0764 14.2595 5.38236 14.4513 5.75869C14.6693 6.18651 14.6693 6.74656 14.6693 7.86667V10.8C14.6693 11.9201 14.6693 12.4802 14.4513 12.908C14.2595 13.2843 13.9536 13.5903 13.5773 13.782C13.1494 14 12.5894 14 11.4693 14H4.53594C3.41583 14 2.85578 14 2.42796 13.782C2.05163 13.5903 1.74567 13.2843 1.55392 12.908C1.33594 12.4802 1.33594 11.9201 1.33594 10.8V4.66667Z" stroke="#7A7A7A" stroke-width="1.5" stroke-linecap="round" stroke-linejoin="round"/>
</svg>
