<svg width="16" height="16" viewBox="0 0 16 16" fill="none" xmlns="http://www.w3.org/2000/svg">
<path d="M5.71206 4.98458C5.7962 4.69686 6.2038 4.69686 6.28794 4.98459L7.31155 8.48472C7.34027 8.58293 7.41707 8.65973 7.51528 8.68845L11.0154 9.71206C11.3031 9.7962 11.3031 10.2038 11.0154 10.2879L7.51528 11.3115C7.41707 11.3403 7.34027 11.4171 7.31155 11.5153L6.28794 15.0154C6.2038 15.3031 5.7962 15.3031 5.71206 15.0154L4.68845 11.5153C4.65973 11.4171 4.58293 11.3403 4.48472 11.3115L0.984585 10.2879C0.696861 10.2038 0.696862 9.7962 0.984585 9.71206L4.48472 8.68845C4.58293 8.65973 4.65973 8.58293 4.68845 8.48472L5.71206 4.98458Z" fill="white"/>
<path d="M11.7134 3.65109C11.7975 3.36337 12.2051 3.36337 12.2892 3.65109L12.7094 5.08796C12.7382 5.18617 12.815 5.26297 12.9132 5.29169L14.35 5.7119C14.6378 5.79604 14.6378 6.20363 14.35 6.28778L12.9132 6.70798C12.815 6.73671 12.7382 6.81351 12.7094 6.91172L12.2892 8.34858C12.2051 8.63631 11.7975 8.63631 11.7134 8.34858L11.2932 6.91172C11.2644 6.81351 11.1876 6.73671 11.0894 6.70798L9.65255 6.28778C9.36483 6.20363 9.36483 5.79604 9.65255 5.7119L11.0894 5.29169C11.1876 5.26297 11.2644 5.18617 11.2932 5.08796L11.7134 3.65109Z" fill="white"/>
<path d="M7.71206 1.65109C7.7962 1.36337 8.2038 1.36337 8.28794 1.65109L8.40645 2.05632C8.43517 2.15453 8.51197 2.23133 8.61018 2.26005L9.01541 2.37856C9.30314 2.46271 9.30314 2.8703 9.01541 2.95444L8.61018 3.07295C8.51197 3.10167 8.43517 3.17847 8.40645 3.27669L8.28794 3.68192C8.2038 3.96964 7.7962 3.96964 7.71206 3.68192L7.59355 3.27669C7.56483 3.17847 7.48803 3.10167 7.38982 3.07295L6.98459 2.95444C6.69686 2.8703 6.69686 2.46271 6.98459 2.37856L7.38982 2.26005C7.48803 2.23133 7.56483 2.15453 7.59355 2.05632L7.71206 1.65109Z" fill="white"/>
</svg>
